<svg width="103" height="24" viewBox="0 0 103 24" fill="none" xmlns="http://www.w3.org/2000/svg">
<path d="M33.316 17V7.2H35.136V15.46H40.26V17H33.316ZM44.8205 17.098C44.0552 17.098 43.3738 16.9347 42.7765 16.608C42.1792 16.272 41.7078 15.8147 41.3625 15.236C41.0172 14.6573 40.8445 13.9993 40.8445 13.262C40.8445 12.5153 41.0172 11.8573 41.3625 11.288C41.7078 10.7093 42.1792 10.2567 42.7765 9.93C43.3738 9.60333 44.0552 9.44 44.8205 9.44C45.5952 9.44 46.2812 9.60333 46.8785 9.93C47.4852 10.2567 47.9565 10.7047 48.2925 11.274C48.6378 11.8433 48.8105 12.506 48.8105 13.262C48.8105 13.9993 48.6378 14.6573 48.2925 15.236C47.9565 15.8147 47.4852 16.272 46.8785 16.608C46.2812 16.9347 45.5952 17.098 44.8205 17.098ZM44.8205 15.6C45.2498 15.6 45.6325 15.5067 45.9685 15.32C46.3045 15.1333 46.5658 14.8627 46.7525 14.508C46.9485 14.1533 47.0465 13.738 47.0465 13.262C47.0465 12.7767 46.9485 12.3613 46.7525 12.016C46.5658 11.6613 46.3045 11.3907 45.9685 11.204C45.6325 11.0173 45.2545 10.924 44.8345 10.924C44.4052 10.924 44.0225 11.0173 43.6865 11.204C43.3598 11.3907 43.0985 11.6613 42.9025 12.016C42.7065 12.3613 42.6085 12.7767 42.6085 13.262C42.6085 13.738 42.7065 14.1533 42.9025 14.508C43.0985 14.8627 43.3598 15.1333 43.6865 15.32C44.0225 15.5067 44.4005 15.6 44.8205 15.6ZM53.9139 17.098C53.1299 17.098 52.4299 16.9347 51.8139 16.608C51.2073 16.272 50.7313 15.8147 50.3859 15.236C50.0406 14.6573 49.8679 13.9993 49.8679 13.262C49.8679 12.5153 50.0406 11.8573 50.3859 11.288C50.7313 10.7093 51.2073 10.2567 51.8139 9.93C52.4299 9.60333 53.1299 9.44 53.9139 9.44C54.6419 9.44 55.2813 9.58933 55.8319 9.888C56.3919 10.1773 56.8166 10.6067 57.1059 11.176L55.7619 11.96C55.5379 11.6053 55.2626 11.344 54.9359 11.176C54.6186 11.008 54.2733 10.924 53.8999 10.924C53.4706 10.924 53.0833 11.0173 52.7379 11.204C52.3926 11.3907 52.1219 11.6613 51.9259 12.016C51.7299 12.3613 51.6319 12.7767 51.6319 13.262C51.6319 13.7473 51.7299 14.1673 51.9259 14.522C52.1219 14.8673 52.3926 15.1333 52.7379 15.32C53.0833 15.5067 53.4706 15.6 53.8999 15.6C54.2733 15.6 54.6186 15.516 54.9359 15.348C55.2626 15.18 55.5379 14.9187 55.7619 14.564L57.1059 15.348C56.8166 15.908 56.3919 16.342 55.8319 16.65C55.2813 16.9487 54.6419 17.098 53.9139 17.098ZM63.2247 17V15.488L63.1267 15.166V12.52C63.1267 12.0067 62.9727 11.61 62.6647 11.33C62.3567 11.0407 61.89 10.896 61.2647 10.896C60.8447 10.896 60.4294 10.9613 60.0187 11.092C59.6174 11.2227 59.2767 11.4047 58.9967 11.638L58.3107 10.364C58.712 10.056 59.188 9.82733 59.7387 9.678C60.2987 9.51933 60.8774 9.44 61.4747 9.44C62.5574 9.44 63.3927 9.70133 63.9807 10.224C64.578 10.7373 64.8767 11.5353 64.8767 12.618V17H63.2247ZM60.8727 17.098C60.3127 17.098 59.8227 17.0047 59.4027 16.818C58.9827 16.622 58.656 16.356 58.4227 16.02C58.1987 15.6747 58.0867 15.2873 58.0867 14.858C58.0867 14.438 58.1847 14.06 58.3807 13.724C58.586 13.388 58.9174 13.122 59.3747 12.926C59.832 12.73 60.4387 12.632 61.1947 12.632H63.3647V13.794H61.3207C60.7234 13.794 60.322 13.892 60.1167 14.088C59.9114 14.2747 59.8087 14.508 59.8087 14.788C59.8087 15.1053 59.9347 15.3573 60.1867 15.544C60.4387 15.7307 60.7887 15.824 61.2367 15.824C61.666 15.824 62.0487 15.726 62.3847 15.53C62.73 15.334 62.9774 15.0447 63.1267 14.662L63.4207 15.712C63.2527 16.1507 62.9494 16.4913 62.5107 16.734C62.0814 16.9767 61.5354 17.098 60.8727 17.098ZM69.9366 17.098C69.1153 17.098 68.4806 16.888 68.0326 16.468C67.5846 16.0387 67.3606 15.4087 67.3606 14.578V7.872H69.1106V14.536C69.1106 14.8907 69.1993 15.166 69.3766 15.362C69.5633 15.558 69.8199 15.656 70.1466 15.656C70.5386 15.656 70.8653 15.5533 71.1266 15.348L71.6166 16.594C71.4113 16.762 71.1593 16.888 70.8606 16.972C70.5619 17.056 70.2539 17.098 69.9366 17.098ZM66.1286 10.98V9.58H71.1126V10.98H66.1286ZM76.3241 17.098C75.4934 17.098 74.7654 16.9347 74.1401 16.608C73.5241 16.272 73.0434 15.8147 72.6981 15.236C72.3621 14.6573 72.1941 13.9993 72.1941 13.262C72.1941 12.5153 72.3574 11.8573 72.6841 11.288C73.0201 10.7093 73.4774 10.2567 74.0561 9.93C74.6441 9.60333 75.3114 9.44 76.0581 9.44C76.7861 9.44 77.4348 9.59867 78.0041 9.916C78.5734 10.2333 79.0214 10.6813 79.3481 11.26C79.6748 11.8387 79.8381 12.52 79.8381 13.304C79.8381 13.3787 79.8334 13.4627 79.8241 13.556C79.8241 13.6493 79.8194 13.738 79.8101 13.822H73.5801V12.66H78.8861L78.2001 13.024C78.2094 12.5947 78.1208 12.2167 77.9341 11.89C77.7474 11.5633 77.4908 11.3067 77.1641 11.12C76.8468 10.9333 76.4781 10.84 76.0581 10.84C75.6288 10.84 75.2508 10.9333 74.9241 11.12C74.6068 11.3067 74.3548 11.568 74.1681 11.904C73.9908 12.2307 73.9021 12.618 73.9021 13.066V13.346C73.9021 13.794 74.0048 14.1907 74.2101 14.536C74.4154 14.8813 74.7048 15.1473 75.0781 15.334C75.4514 15.5207 75.8808 15.614 76.3661 15.614C76.7861 15.614 77.1641 15.5487 77.5001 15.418C77.8361 15.2873 78.1348 15.082 78.3961 14.802L79.3341 15.88C78.9981 16.272 78.5734 16.5753 78.0601 16.79C77.5561 16.9953 76.9774 17.098 76.3241 17.098ZM89.7702 17.14C88.4262 17.14 87.3716 16.762 86.6062 16.006C85.8502 15.25 85.4722 14.158 85.4722 12.73V7.2H87.2922V12.66C87.2922 13.668 87.5069 14.4007 87.9362 14.858C88.3749 15.3153 88.9909 15.544 89.7842 15.544C90.5776 15.544 91.1889 15.3153 91.6182 14.858C92.0476 14.4007 92.2622 13.668 92.2622 12.66V7.2H94.0542V12.73C94.0542 14.158 93.6716 15.25 92.9062 16.006C92.1502 16.762 91.1049 17.14 89.7702 17.14ZM98.7451 17.098C98.1198 17.098 97.5178 17.0187 96.9391 16.86C96.3698 16.692 95.9171 16.4913 95.5811 16.258L96.2531 14.928C96.5891 15.1427 96.9904 15.32 97.4571 15.46C97.9238 15.6 98.3904 15.67 98.8571 15.67C99.4078 15.67 99.8044 15.5953 100.047 15.446C100.299 15.2967 100.425 15.096 100.425 14.844C100.425 14.6387 100.341 14.4847 100.173 14.382C100.005 14.27 99.7858 14.186 99.5151 14.13C99.2444 14.074 98.9411 14.0227 98.6051 13.976C98.2784 13.9293 97.9471 13.8687 97.6111 13.794C97.2844 13.71 96.9858 13.5933 96.7151 13.444C96.4444 13.2853 96.2251 13.0753 96.0571 12.814C95.8891 12.5527 95.8051 12.2073 95.8051 11.778C95.8051 11.302 95.9404 10.8913 96.2111 10.546C96.4818 10.1913 96.8598 9.92067 97.3451 9.734C97.8398 9.538 98.4231 9.44 99.0951 9.44C99.5991 9.44 100.108 9.496 100.621 9.608C101.134 9.72 101.559 9.87867 101.895 10.084L101.223 11.414C100.868 11.1993 100.509 11.0547 100.145 10.98C99.7904 10.896 99.4358 10.854 99.0811 10.854C98.5491 10.854 98.1524 10.9333 97.8911 11.092C97.6391 11.2507 97.5131 11.4513 97.5131 11.694C97.5131 11.918 97.5971 12.086 97.7651 12.198C97.9331 12.31 98.1524 12.3987 98.4231 12.464C98.6938 12.5293 98.9924 12.5853 99.3191 12.632C99.6551 12.6693 99.9864 12.73 100.313 12.814C100.64 12.898 100.938 13.0147 101.209 13.164C101.489 13.304 101.713 13.5047 101.881 13.766C102.049 14.0273 102.133 14.368 102.133 14.788C102.133 15.2547 101.993 15.6607 101.713 16.006C101.442 16.3513 101.055 16.622 100.551 16.818C100.047 17.0047 99.4451 17.098 98.7451 17.098Z" fill="#624DE3"/>
<path d="M21 3L14.6138 20.6847C14.5707 20.7788 14.5015 20.8585 14.4144 20.9144C14.3274 20.9703 14.2261 21 14.1226 21C14.0191 21 13.9178 20.9703 13.8307 20.9144C13.7437 20.8585 13.6745 20.7788 13.6314 20.6847L10.1927 13.8073L3.31525 10.3686C3.22119 10.3255 3.14148 10.2563 3.08559 10.1693C3.02971 10.0822 3 9.98087 3 9.8774C3 9.77393 3.02971 9.67264 3.08559 9.58555C3.14148 9.49847 3.22119 9.42926 3.31525 9.38616L21 3Z" stroke="#624DE3" stroke-width="1.5" stroke-linecap="round" stroke-linejoin="round"/>
</svg>
